<?xml version="1.0" encoding="utf-8"?>
<!-- Generator: Adobe Illustrator 25.1.0, SVG Export Plug-In . SVG Version: 6.00 Build 0)  -->
<svg version="1.1" id="Layer_1" xmlns="http://www.w3.org/2000/svg" xmlns:xlink="http://www.w3.org/1999/xlink" x="0px" y="0px"
	 viewBox="0 0 536.82 75" style="enable-background:new 0 0 536.82 75;" xml:space="preserve">
<style type="text/css">
	.st0{fill:#74AA4E;}
	.st1{fill:#212322;}
</style>
<g>
	<path class="st0" d="M36.58,72.26L7.34,30.88v40.6H0v-56.6h3.09l28.47,39.13V14.89h7.34v57.37H36.58z"/>
	<path class="st0" d="M50.49,14.89h7.73v38.75c0,3.45,1.09,6.29,3.28,8.52c2.19,2.23,5.09,3.34,8.69,3.34c3.81,0,6.81-1.08,9-3.24
		c2.19-2.16,3.28-5.1,3.28-8.81V14.89h7.73v39.37c0,5.72-1.78,10.18-5.35,13.39c-3.57,3.21-8.43,4.81-14.58,4.81
		c-6.34,0-11.22-1.57-14.64-4.71c-3.43-3.14-5.14-7.65-5.14-13.52V14.89z"/>
	<path class="st0" d="M122.42,21.84v49.64h-7.73V21.84h-18v-6.95h44.54v6.95H122.42z"/>
	<path class="st0" d="M179.13,71.48l-15.1-24.3c-1.73,0-4.46-0.13-8.19-0.39v24.69h-7.73v-56.6c0.28,0,2.29-0.1,6.01-0.29
		c3.72-0.19,6.43-0.29,8.13-0.29c13.6,0,20.4,5.41,20.4,16.23c0,3.55-1.09,6.75-3.28,9.6c-2.19,2.85-4.79,4.62-7.8,5.31l16.42,26.04
		H179.13z M155.84,21.84v18.39c1.85,0.26,3.66,0.39,5.41,0.39c4.64,0,8.01-0.75,10.12-2.24c2.11-1.49,3.17-4.16,3.17-8
		c0-3.17-1.13-5.45-3.4-6.84c-2.27-1.39-5.85-2.09-10.74-2.09C159.63,21.45,158.11,21.58,155.84,21.84z"/>
	<path class="st0" d="M195.13,71.48v-56.6h7.73v56.6H195.13z"/>
	<path class="st0" d="M236.42,21.84v49.64h-7.73V21.84h-18v-6.95h44.54v6.95H236.42z"/>
	<path class="st0" d="M263.08,71.48v-56.6h7.73v56.6H263.08z"/>
	<path class="st0" d="M281.04,42.7c0-8.19,2.05-15.04,6.16-20.55c4.11-5.51,9.65-8.27,16.63-8.27c7.85,0,13.88,2.54,18.06,7.61
		s6.28,12.14,6.28,21.21c0,9.3-2.1,16.58-6.3,21.85c-4.2,5.27-10.21,7.9-18.04,7.9c-7.13,0-12.72-2.78-16.75-8.34
		C283.06,58.54,281.04,51.41,281.04,42.7z M289.16,42.7c0,6.49,1.28,11.91,3.84,16.26c2.56,4.35,6.17,6.53,10.84,6.53
		c5.28,0,9.3-2,12.07-5.99c2.77-3.99,4.15-9.59,4.15-16.8c0-14.58-5.41-21.87-16.23-21.87c-4.79,0-8.44,1.96-10.93,5.87
		S289.16,35.95,289.16,42.7z"/>
	<path class="st0" d="M373.64,72.26L344.4,30.88v40.6h-7.34v-56.6h3.09l28.47,39.13V14.89h7.34v57.37H373.64z"/>
	<path class="st1" d="M387.55,14.89h7.73v38.75c0,3.45,1.09,6.29,3.28,8.52c2.19,2.23,5.09,3.34,8.69,3.34c3.81,0,6.81-1.08,9-3.24
		c2.19-2.16,3.28-5.1,3.28-8.81V14.89h7.73v39.37c0,5.72-1.78,10.18-5.35,13.39c-3.57,3.21-8.43,4.81-14.58,4.81
		c-6.34,0-11.22-1.57-14.64-4.71c-3.43-3.14-5.14-7.65-5.14-13.52V14.89z"/>
</g>
<g>
	<path class="st0" d="M491.46,64.45l-2.03,0.22c-0.34,0.02-0.69,0.09-1.03,0.08l-1.04-0.01l-1.05-0.01c-0.17,0-0.35,0-0.53-0.01
		l-0.52-0.06c-0.69-0.09-1.39-0.17-2.09-0.29c-2.77-0.57-5.42-1.7-7.89-3.16c-2.43-1.52-4.67-3.38-6.58-5.56
		c-1.89-2.2-3.37-4.74-4.42-7.44c-1.01-2.72-1.5-5.6-1.61-8.45c0.02-0.71,0.03-1.43,0.06-2.13c0.02-0.34,0.03-0.73,0.06-1.03
		l0.1-0.91c0.15-1.21,0.29-2.42,0.48-3.63c0.35-2.42,0.77-4.84,1.29-7.27c0.53-2.42,1.11-4.84,1.93-7.27
		c0.09-0.26,0.37-0.4,0.62-0.31c0.15,0.05,0.26,0.17,0.31,0.31c0.82,2.42,1.4,4.84,1.93,7.27c0.52,2.42,0.94,4.84,1.29,7.27
		c0.19,1.21,0.33,2.42,0.48,3.63l0.1,0.91c0.03,0.31,0.09,0.52,0.13,0.78c0.1,0.5,0.17,1,0.24,1.5c0.48,1.96,1.05,3.84,1.84,5.62
		c0.83,1.76,1.73,3.47,2.84,5.09c1.15,1.58,2.44,3.08,3.96,4.39c1.55,1.25,3.28,2.28,5.11,3.24c1.86,0.89,3.86,1.65,6.03,2.13
		c0.82,0.14,1.66,0.24,2.51,0.28c0.02-0.12,0.05-0.24,0.07-0.36c1.6-9.06,2.17-22.15-4.25-33.01
		c-7.25-12.27-21.92-19.47-43.62-21.42c-2.08,6.47-7.91,28.46,2.34,46.19c7.24,12.52,21.06,20.58,41.1,23.97
		c0.85-2.15,2.24-6.03,3.41-10.87C492.5,64.25,491.98,64.36,491.46,64.45z"/>
	<path class="st0" d="M526.97,0c-5.8,1.65-23.39,7.64-33.61,21.81c0.38,0.57,0.74,1.14,1.09,1.73c5.55,9.41,7.31,21.61,5.12,35.34
		c1.69-0.57,3.29-1.41,4.69-2.52c1.76-1.46,3.13-3.34,4.11-5.34c0.97-2.02,1.51-4.13,2.03-6.12c0.1-0.51,0.21-1.01,0.34-1.51
		l0.1-0.37l0.06-0.38c0.05-0.25,0.09-0.5,0.14-0.75c0.05-0.25,0.11-0.5,0.17-0.74c0.06-0.24,0.08-0.5,0.12-0.75
		c0.08-0.5,0.18-1,0.27-1.5c0.05-0.51,0.09-1.02,0.15-1.52c0.03-0.27,0.07-0.48,0.08-0.79l0.06-0.91c0.09-1.21,0.19-2.42,0.33-3.63
		c0.28-2.42,0.63-4.84,1.14-7.27c0.51-2.42,1.11-4.84,2.03-7.27c0.1-0.26,0.39-0.39,0.64-0.29c0.14,0.05,0.24,0.16,0.29,0.29
		c0.93,2.42,1.52,4.84,2.03,7.27c0.5,2.42,0.86,4.84,1.14,7.27c0.14,1.21,0.24,2.42,0.33,3.63l0.06,0.91
		c0.02,0.3,0.01,0.68,0.01,1.02c0,0.7-0.01,1.4-0.03,2.1c-0.23,2.8-0.92,5.59-2.25,8.08c-1.35,2.48-3.2,4.61-5.22,6.41
		c-2.08,1.77-4.25,3.24-6.42,4.61c-2.22,1.31-4.48,2.47-6.88,3.46c-0.05,0.02-0.1,0.04-0.14,0.05c-1,4.92-2.3,9.11-3.36,12.07
		c3.24-0.84,7.81-2.22,12.71-4.37c8.43-3.7,19.62-10.5,25.09-21.87C539.56,35.32,537.4,19.13,526.97,0z"/>
</g>
</svg>
