<svg id="Layer_1" data-name="Layer 1" xmlns="http://www.w3.org/2000/svg" xmlns:xlink="http://www.w3.org/1999/xlink" viewBox="0 0 2000 2000"><defs><style>.cls-1{fill:none;}.cls-2{fill:#fbf6f3;}.cls-3{fill:#efe9e8;}.cls-4{fill:url(#New_Pattern);}</style><pattern id="New_Pattern" data-name="New Pattern" width="330" height="520" patternTransform="translate(357.08 -253.03)" patternUnits="userSpaceOnUse" viewBox="0 0 330 520"><rect class="cls-1" width="330" height="520"/><rect class="cls-2" x="165" y="390" width="330" height="260"/><path class="cls-3" d="M340.25,599.91l-.25-.26a241.09,241.09,0,0,1-10.35,32.49l.4-.23A275.11,275.11,0,0,1,295,623.29a197,197,0,0,1-33.23-13.85,146.22,146.22,0,0,1-29.32-20.5,120.86,120.86,0,0,1-36.23-60.23,162.36,162.36,0,0,1-4.77-35.35,211.81,211.81,0,0,1,2.31-35.74,228.49,228.49,0,0,1,8-35l-2,1.36c21,1.92,41.85,5.44,61.76,12.16A162.47,162.47,0,0,1,290.07,449a116.2,116.2,0,0,1,24.91,19,99.84,99.84,0,0,1,18.27,25.42,115.49,115.49,0,0,1,10,29.81,150.78,150.78,0,0,1,2.47,31.47,189.38,189.38,0,0,1-3.26,31.48l.65-.53a58.2,58.2,0,0,1-6-.62c-.5-.07-1-.15-1.48-.24l-1.46-.35c-1-.24-2-.5-2.93-.79a83.84,83.84,0,0,1-11.34-4.29c-1.85-.82-3.6-1.79-5.37-2.79s-3.51-2-5.21-3.14-3.34-2.26-4.94-3.49a42.18,42.18,0,0,1-4.49-4,78.27,78.27,0,0,1-7.83-9.2,81.18,81.18,0,0,1-6.2-10.33c-.92-1.79-1.81-3.62-2.65-5.45s-1.55-3.69-2.22-5.58a118,118,0,0,1-3.31-11.63l0,.14L277,519.7l-.07-.5-.1-.55-.17-1c-.08-.55-.13-1.31-.21-2-.28-2.77-.66-5.51-1-8.27-.63-5.52-1.46-11-2.42-16.47S271,480,269.73,474.62c-.64-2.71-1.33-5.41-2.09-8.1-.38-1.34-.78-2.68-1.19-4l-.65-2-.33-1a3.41,3.41,0,0,0-1.32-1.73,3.32,3.32,0,0,0-2.22-.5,3.31,3.31,0,0,0-2,1.06,3.53,3.53,0,0,0-.6,1,2.41,2.41,0,0,0-.12.34l-.08.25-.34,1c-.43,1.33-.84,2.67-1.24,4-.79,2.68-1.49,5.38-2.15,8.08q-2,8.11-3.47,16.32c-1,5.46-1.83,11-2.51,16.45l-1,8.26a73.27,73.27,0,0,0-.49,8.4l-.07,4.2c.07,1.45.17,2.84.3,4.24.26,2.79.66,5.57,1.18,8.32a72.22,72.22,0,0,0,4.95,16.05,79.77,79.77,0,0,0,8.39,14.49A75.81,75.81,0,0,0,274,582a90.49,90.49,0,0,0,13.49,9.77,83.46,83.46,0,0,0,15.15,6.83c10.53,3.6,22,4.07,32.87,2.31Zm-13,1.41c-2.71,0-5.53,0-8.25-.07-1.37-.06-2.73-.3-4.1-.48l-4.09-.58a64.56,64.56,0,0,1-7.95-2.2,82.1,82.1,0,0,1-14.92-7,87.41,87.41,0,0,1-13.09-10A74.06,74.06,0,0,1,264,568.75a77,77,0,0,1-7.84-14.34,69.89,69.89,0,0,1-4.4-15.68c-.44-2.69-.76-5.39-.94-8.11-.1-1.36-.16-2.73-.19-4l.17-4.09c.1-5.39,1.08-10.85,1.81-16.3s1.72-10.87,2.73-16.27,2.21-10.77,3.54-16.1q1-4,2.15-7.92c.38-1.31.79-2.61,1.21-3.91l.31-1,.13-.39a.35.35,0,0,1-.05.08.27.27,0,0,1-.2.1.39.39,0,0,1-.15,0l-.08,0c-.07,0-.1-.12-.1-.1l.32,1,.63,1.94q.61,1.95,1.17,3.93c.75,2.62,1.43,5.28,2.07,7.94,1.3,5.34,2.47,10.71,3.47,16.11.51,2.71,1,5.41,1.42,8.13s.85,5.45,1.23,8.17.8,5.44,1.13,8.17c.09.69.14,1.31.27,2.12.06.38.14.74.2,1.07l.09.47.09.52.69,4v.07l0,.07a116.87,116.87,0,0,0,3.62,11.84c.73,1.94,1.49,3.85,2.41,5.75s1.83,3.68,2.81,5.49a75,75,0,0,0,14.8,19.77,44.71,44.71,0,0,0,4.74,4c1.66,1.23,3.38,2.38,5.12,3.47s3.53,2.13,5.33,3.11,3.62,2,5.51,2.78a86.81,86.81,0,0,0,11.59,4.23c1,.28,2,.55,3,.79l1.52.35c.53.1,1,.17,1.54.25a60.37,60.37,0,0,0,6.15.6.63.63,0,0,0,.65-.53c.92-5.21,1.73-10.47,2.25-15.76.32-2.63.48-5.29.71-7.93s.35-5.3.36-8a153.11,153.11,0,0,0-2.31-31.77A119.5,119.5,0,0,0,335,492.49a103.47,103.47,0,0,0-18.23-26.29,116.9,116.9,0,0,0-25.16-19.85,165.81,165.81,0,0,0-29.09-13.42c-20.19-7.12-41.36-10.73-62.53-12.85a2,2,0,0,0-2.05,1.35h0A232.36,232.36,0,0,0,189.58,457a207,207,0,0,0-2.44,36.48,159.62,159.62,0,0,0,5,36.29,124.74,124.74,0,0,0,14.31,33.78,121.12,121.12,0,0,0,23.72,27.91,144.45,144.45,0,0,0,30.43,20.16,202.42,202.42,0,0,0,33.92,13.12,309.3,309.3,0,0,0,35.41,7.9.37.37,0,0,0,.4-.22c2.06-5.32,3.86-10.73,5.56-16.17s3.19-11,4.52-16.49a.14.14,0,0,0,0-.09.2.2,0,0,0-.25-.16l-4.69,1Z"/><rect class="cls-2" x="-165" y="390" width="330" height="260"/><path class="cls-3" d="M10.25,599.91l-.25-.26A241.09,241.09,0,0,1-.35,632.14l.4-.23A275.11,275.11,0,0,1-35,623.29a197,197,0,0,1-33.23-13.85,146.22,146.22,0,0,1-29.32-20.5,122,122,0,0,1-22.6-27.44,122.18,122.18,0,0,1-13.63-32.79,162.36,162.36,0,0,1-4.77-35.35,211.81,211.81,0,0,1,2.31-35.74,228.49,228.49,0,0,1,8-35l-2,1.36c21,1.92,41.85,5.44,61.76,12.16A162.47,162.47,0,0,1-39.93,449a116.2,116.2,0,0,1,24.91,19A99.84,99.84,0,0,1,3.25,493.36a115.49,115.49,0,0,1,10,29.81,150.78,150.78,0,0,1,2.47,31.47,189.38,189.38,0,0,1-3.26,31.48l.65-.53a58.2,58.2,0,0,1-6-.62c-.5-.07-1-.15-1.48-.24l-1.46-.35c-1-.24-2-.5-2.93-.79a83.84,83.84,0,0,1-11.34-4.29c-1.85-.82-3.6-1.79-5.37-2.79s-3.51-2-5.21-3.14-3.34-2.26-4.94-3.49a42.18,42.18,0,0,1-4.49-4A78.27,78.27,0,0,1-38,556.7a81.18,81.18,0,0,1-6.2-10.33c-.92-1.79-1.81-3.62-2.65-5.45s-1.55-3.69-2.22-5.58a118,118,0,0,1-3.31-11.63l0,.14L-53,519.7l-.07-.5-.1-.55-.17-1c-.08-.55-.13-1.31-.21-2-.28-2.77-.66-5.51-1-8.27-.63-5.52-1.46-11-2.42-16.47S-59,480-60.27,474.62c-.64-2.71-1.33-5.41-2.09-8.1-.38-1.34-.78-2.68-1.19-4l-.65-2-.33-1a3.41,3.41,0,0,0-1.32-1.73,3.36,3.36,0,0,0-1-.44,3.34,3.34,0,0,0-1.18-.06,3.31,3.31,0,0,0-2,1.06,3.53,3.53,0,0,0-.6,1,2.41,2.41,0,0,0-.12.34l-.08.25-.34,1c-.43,1.33-.84,2.67-1.24,4-.79,2.68-1.49,5.38-2.15,8.08q-2,8.11-3.47,16.32c-1,5.46-1.83,11-2.51,16.45l-1,8.26a73.27,73.27,0,0,0-.49,8.4l-.07,4.2c.07,1.45.17,2.84.3,4.24.26,2.79.66,5.57,1.18,8.32a72.22,72.22,0,0,0,5,16.05,79.77,79.77,0,0,0,8.39,14.49A75.81,75.81,0,0,0-56,582a90.49,90.49,0,0,0,13.49,9.77,83.46,83.46,0,0,0,15.15,6.83c10.53,3.6,22,4.07,32.87,2.31Zm-13,1.41c-2.71,0-5.53,0-8.25-.07-1.37-.06-2.73-.3-4.1-.48l-4.09-.58a64.56,64.56,0,0,1-7.95-2.2,82.1,82.1,0,0,1-14.92-7,87.41,87.41,0,0,1-13.09-10A74.06,74.06,0,0,1-66,568.75a77,77,0,0,1-7.84-14.34,69.89,69.89,0,0,1-4.4-15.68c-.44-2.69-.76-5.39-.94-8.11-.1-1.36-.16-2.73-.19-4l.17-4.09c.1-5.39,1.08-10.85,1.81-16.3s1.72-10.87,2.73-16.27,2.21-10.77,3.54-16.1q1-4,2.15-7.92c.38-1.31.79-2.61,1.21-3.91l.31-1,.13-.39a.35.35,0,0,1,0,.08.27.27,0,0,1-.2.1.39.39,0,0,1-.15,0l-.08,0c-.07,0-.1-.12-.1-.1l.32,1,.63,1.94q.61,1.95,1.17,3.93c.75,2.62,1.43,5.28,2.07,7.94,1.3,5.34,2.47,10.71,3.47,16.11.51,2.71,1,5.41,1.42,8.13s.85,5.45,1.23,8.17.8,5.44,1.13,8.17c.09.69.14,1.31.27,2.12.06.38.14.74.2,1.07l.09.47.09.52.69,4v.07l0,.07a116.87,116.87,0,0,0,3.62,11.84c.73,1.94,1.49,3.85,2.41,5.75s1.83,3.68,2.81,5.49A81.73,81.73,0,0,0-39.67,558a81,81,0,0,0,8.21,9.26,44.71,44.71,0,0,0,4.74,4c1.66,1.23,3.38,2.38,5.12,3.47s3.53,2.13,5.33,3.11,3.62,2,5.51,2.78A86.81,86.81,0,0,0,.83,584.86c1,.28,2,.55,3,.79l1.52.35c.53.1,1,.17,1.54.25a60.37,60.37,0,0,0,6.15.6.63.63,0,0,0,.65-.53c.92-5.21,1.73-10.47,2.25-15.76.32-2.63.48-5.29.71-7.93s.35-5.3.36-8a153.11,153.11,0,0,0-2.31-31.77A119.5,119.5,0,0,0,5,492.49,103.47,103.47,0,0,0-13.22,466.2a116.9,116.9,0,0,0-25.16-19.85,165.81,165.81,0,0,0-29.09-13.42c-20.19-7.12-41.36-10.73-62.53-12.85a2,2,0,0,0-2.05,1.35h0A232.36,232.36,0,0,0-140.42,457a207,207,0,0,0-2.44,36.48,159.62,159.62,0,0,0,5,36.29,124.74,124.74,0,0,0,14.31,33.78,121.12,121.12,0,0,0,23.72,27.91A144.45,144.45,0,0,0-69.4,611.61a202.42,202.42,0,0,0,33.92,13.12,309.3,309.3,0,0,0,35.41,7.9.37.37,0,0,0,.4-.22c2.06-5.32,3.86-10.73,5.56-16.17s3.19-11,4.52-16.49a.14.14,0,0,0,0-.09.2.2,0,0,0-.25-.16l-4.69,1Z"/><path class="cls-3" d="M137.06,475.94a143.18,143.18,0,0,1,2.56,36.1A103,103,0,0,1,131.28,547l-1.82,4.11-2.12,4-1.06,2-1.19,1.91-2.38,3.82-2.61,3.66-1.31,1.83c-.46.6-.94,1.17-1.41,1.76l-2.83,3.5-3,3.35L110,578.53l-1.6,1.59c-1.07,1-2.12,2.13-3.2,3.17-2.26,2-4.43,4.08-6.8,6a152.74,152.74,0,0,1-14.58,10.69c-20.25,13.2-43,22.34-66.46,28.57l2.4,2.62a267.71,267.71,0,0,0,10-36.47L28.4,596.1l.68-.24.43-.18.86-.37,1.7-.74c1.12-.5,2.25-1,3.36-1.54,2.23-1,4.44-2.16,6.62-3.31s4.32-2.36,6.44-3.61,4.2-2.65,6.25-4c4.08-2.73,8.09-5.62,11.92-8.74,1-.78,1.91-1.57,2.85-2.41s1.83-1.69,2.71-2.57c1.77-1.74,3.47-3.56,5.07-5.47a63.92,63.92,0,0,0,8.3-12.42,59,59,0,0,0,4.84-14.13A68.18,68.18,0,0,0,91.57,529a63.79,63.79,0,0,0,.24-7.42c.14-5-.55-9.82-1-14.71A228.45,228.45,0,0,0,86,477.93a145.82,145.82,0,0,0-3.93-14.17c-.4-1.16-.8-2.31-1.25-3.46a4.87,4.87,0,0,0-.43-1,2.14,2.14,0,0,0-1-.82,2.18,2.18,0,0,0-2.43.62,2.5,2.5,0,0,0-.35.56c-.08.2-.11.3-.17.46l-.32.86-.61,1.74c-.39,1.16-.77,2.33-1.13,3.5-1.44,4.69-2.58,9.45-3.6,14.23s-1.87,9.61-2.57,14.44c-.36,2.42-.67,4.85-1,7.27s-.47,4.86-.72,7.3-.5,4.86-.65,7.31L65.11,524V524l-.57,3.1-.29,1.55c-.09.54-.14,1.06-.23,1.54l-.7,3c-.21,1-.42,2.06-.59,3.12l0-.09c-.71,2.45-1.16,5.07-1.88,7.46s-1.37,4.92-2.15,7.33a56.61,56.61,0,0,1-6.28,13.68,44.51,44.51,0,0,1-9.92,11.07,45.36,45.36,0,0,1-13.19,6.79l2,1.65a208.25,208.25,0,0,0,2.91-28.87,171.93,171.93,0,0,0-1.54-29,139,139,0,0,0-7-28.26,121.5,121.5,0,0,0-13.11-26l0,1.8a155.32,155.32,0,0,1,20.18-22.41l5.7-5,6-4.67c1-.81,2-1.51,3.06-2.24l3.09-2.19c2-1.51,4.21-2.82,6.33-4.19l3.21-2,3.28-1.91,3.28-1.91c1.1-.63,2.23-1.2,3.35-1.8,2.23-1.2,4.45-2.43,6.74-3.52s4.54-2.27,6.86-3.29L87,417.08l3.5-1.48c2.33-1,4.7-1.93,7.07-2.85,1.18-.47,2.38-.9,3.57-1.33s2.38-.89,3.59-1.29l3.6-1.24,3.51-1.16C122.76,429.25,132.5,452.09,137.06,475.94Zm-28.9-67.58-3.67,1.09c-2.43.76-4.87,1.52-7.27,2.38s-4.81,1.69-7.18,2.63l-3.57,1.39-3.53,1.48c-2.37,1-4.69,2-7,3.1s-4.62,2.18-6.9,3.34c-1.14.58-2.29,1.14-3.41,1.75l-3.36,1.86-3.35,1.87-3.28,2c-2.18,1.35-4.39,2.63-6.49,4.11L46,437.51c-1.06.72-2.14,1.41-3.14,2.21l-6.15,4.63-5.89,5A147.57,147.57,0,0,0,9.91,472a1.55,1.55,0,0,0-.05,1.78l0,0A118.78,118.78,0,0,1,22.42,499.2a141.28,141.28,0,0,1,6.68,27.61,180.29,180.29,0,0,1,1.64,28.45,228.73,228.73,0,0,1-2.41,28.48v0a1.49,1.49,0,0,0,2,1.61,48.1,48.1,0,0,0,13.87-7.51A46.62,46.62,0,0,0,54.43,566a59.2,59.2,0,0,0,6.22-14.32c.75-2.48,1.39-5,2-7.47s1.06-5,1.72-7.49v0l0-.07c.13-1,.32-2,.5-3.06.09-.52.22-1,.32-1.52s.24-1,.34-1.57.15-1.08.22-1.57l.26-1.54.53-3.08h0v-.05l.67-7.32c.12-2.42.36-4.84.56-7.27s.39-4.84.68-7.26.59-4.83.93-7.24c.68-4.81,1.49-9.61,2.55-14.36s2.2-9.47,3.65-14.1c.37-1.16.75-2.31,1.15-3.45l.61-1.71.32-.85.15-.4A.92.92,0,0,1,78,460a.78.78,0,0,1,.89-.22c.35.14.42.32.66,1,.43,1.13.82,2.28,1.21,3.43a134.48,134.48,0,0,1,3.78,14,226,226,0,0,1,4.26,28.82l.6,7.26c.06,1.21.18,2.45.17,3.63s0,2.37,0,3.59a65.37,65.37,0,0,1-.37,7.18,70.14,70.14,0,0,1-1.24,7.07A56.11,56.11,0,0,1,83,549.19a63.81,63.81,0,0,1-8.11,11.72c-1.56,1.81-3.21,3.54-4.93,5.2a69.1,69.1,0,0,1-5.4,4.7c-3.77,3-7.72,5.76-11.78,8.4-2,1.31-4.06,2.66-6.11,3.81s-4.22,2.36-6.36,3.48-4.3,2.18-6.48,3.19c-1.1.51-2.19,1-3.3,1.48l-1.66.71-1.42.58-.29.12a1.85,1.85,0,0,0-1.09,1.33A264.82,264.82,0,0,1,16,629.77a2,2,0,0,0-.05,1.18,2,2,0,0,0,2.44,1.45h0a253.46,253.46,0,0,0,35.05-11.64c5.68-2.4,11.29-5,16.75-7.88a183,183,0,0,0,16-9.37,155.65,155.65,0,0,0,14.9-11.06c2.42-1.93,4.65-4.1,7-6.17,1.11-1.08,2.19-2.2,3.29-3.29l1.64-1.65,1.55-1.74,3.1-3.48,2.9-3.65c.48-.61,1-1.21,1.44-1.83l1.34-1.92,2.65-3.83,2.42-4,1.2-2,1.07-2.07,2.14-4.15,1.83-4.29a106.43,106.43,0,0,0,8.15-36.15,140.51,140.51,0,0,0-3.31-36.78,199.54,199.54,0,0,0-11.15-35.07c-.54-1.43-1.17-2.83-1.8-4.22L124.6,432c-.63-1.4-1.23-2.81-1.9-4.18l-2-4.12c-1.39-2.74-2.64-5.49-4.21-8.22L112,407.36Z"/><rect class="cls-2" y="130" width="330" height="260"/><path class="cls-3" d="M175.25,339.91l-.25-.26a241.09,241.09,0,0,1-10.35,32.49l.4-.23A275.11,275.11,0,0,1,130,363.29a197,197,0,0,1-33.23-13.85,146.22,146.22,0,0,1-29.32-20.5,120.86,120.86,0,0,1-36.23-60.23,162.36,162.36,0,0,1-4.77-35.35,211.81,211.81,0,0,1,2.31-35.74,228.49,228.49,0,0,1,8-35L34.65,164c21,1.92,41.85,5.44,61.76,12.16A162.47,162.47,0,0,1,125.07,189a116.2,116.2,0,0,1,24.91,19,99.84,99.84,0,0,1,18.27,25.42,115.49,115.49,0,0,1,10,29.81,150.78,150.78,0,0,1,2.47,31.47,189.38,189.38,0,0,1-3.26,31.48l.65-.53a58.2,58.2,0,0,1-6-.62c-.5-.07-1-.15-1.48-.24l-1.46-.35c-1-.24-2-.5-2.93-.79a83.84,83.84,0,0,1-11.34-4.29c-1.85-.82-3.6-1.79-5.37-2.79s-3.51-2-5.21-3.14-3.34-2.26-4.94-3.49a42.18,42.18,0,0,1-4.49-4,78.27,78.27,0,0,1-7.83-9.2,81.18,81.18,0,0,1-6.2-10.33c-.92-1.79-1.81-3.62-2.65-5.45s-1.55-3.69-2.22-5.58a118,118,0,0,1-3.31-11.63l0,.14L112,259.7l-.07-.5-.1-.55-.17-1c-.08-.55-.13-1.31-.21-2-.28-2.77-.66-5.51-1-8.27-.63-5.52-1.46-11-2.42-16.47S106,220,104.73,214.62c-.64-2.71-1.33-5.41-2.09-8.1-.38-1.34-.78-2.68-1.19-4l-.65-2-.33-1a3.41,3.41,0,0,0-1.32-1.73,3.32,3.32,0,0,0-2.22-.5,3.31,3.31,0,0,0-2,1.06,3.53,3.53,0,0,0-.6,1,2.41,2.41,0,0,0-.12.34l-.08.25-.34,1c-.43,1.33-.84,2.67-1.24,4-.79,2.68-1.49,5.38-2.15,8.08q-2,8.11-3.47,16.32c-1,5.46-1.83,11-2.51,16.45l-1,8.26a73.27,73.27,0,0,0-.49,8.4l-.07,4.2c.07,1.45.17,2.84.3,4.24.26,2.79.66,5.57,1.18,8.32a72.22,72.22,0,0,0,5,16,79.77,79.77,0,0,0,8.39,14.49A75.81,75.81,0,0,0,109,322a90.49,90.49,0,0,0,13.49,9.77,83.46,83.46,0,0,0,15.15,6.83c10.53,3.6,22,4.07,32.87,2.31Zm-13,1.41c-2.71,0-5.53,0-8.25-.07-1.37-.06-2.73-.3-4.1-.48l-4.09-.58a64.56,64.56,0,0,1-8-2.2,82.1,82.1,0,0,1-14.92-7,87.41,87.41,0,0,1-13.09-10A74.06,74.06,0,0,1,99,308.75a77,77,0,0,1-7.84-14.34,69.89,69.89,0,0,1-4.4-15.68c-.44-2.69-.76-5.39-.94-8.11-.1-1.36-.16-2.73-.19-4l.17-4.09c.1-5.39,1.08-10.85,1.81-16.3s1.72-10.87,2.73-16.27,2.21-10.77,3.54-16.1q1-4,2.15-7.92c.38-1.31.79-2.61,1.21-3.91l.31-1,.13-.39a.35.35,0,0,1,0,.08.27.27,0,0,1-.2.1.39.39,0,0,1-.15,0l-.08,0c-.07,0-.1-.12-.1-.1l.32,1,.63,1.94q.61,2,1.17,3.93c.75,2.62,1.43,5.28,2.07,7.94,1.3,5.34,2.47,10.71,3.47,16.11.51,2.71,1,5.41,1.42,8.13s.85,5.45,1.23,8.17.8,5.44,1.13,8.17c.09.69.14,1.31.27,2.12.06.38.14.74.2,1.07l.09.47.09.52.69,4v.07l0,.07a116.87,116.87,0,0,0,3.62,11.84c.73,1.94,1.49,3.85,2.41,5.75s1.83,3.68,2.81,5.49a75,75,0,0,0,14.8,19.77,44.71,44.71,0,0,0,4.74,4c1.66,1.23,3.38,2.38,5.12,3.47s3.53,2.13,5.33,3.11,3.62,2,5.51,2.78a86.81,86.81,0,0,0,11.59,4.23c1,.28,2,.55,3,.79l1.52.35c.53.1,1,.17,1.54.25a60.37,60.37,0,0,0,6.15.6.63.63,0,0,0,.65-.53c.92-5.21,1.73-10.47,2.25-15.76.32-2.63.48-5.29.71-7.93s.35-5.3.36-8a153.11,153.11,0,0,0-2.31-31.77A119.5,119.5,0,0,0,170,232.49a103.47,103.47,0,0,0-18.23-26.29,116.9,116.9,0,0,0-25.16-19.85,165.81,165.81,0,0,0-29.09-13.42C77.34,165.81,56.17,162.2,35,160.08a2,2,0,0,0-2,1.35h0A232.36,232.36,0,0,0,24.58,197a207,207,0,0,0-2.44,36.48,159.62,159.62,0,0,0,5,36.29,124.74,124.74,0,0,0,14.31,33.78,121.12,121.12,0,0,0,23.72,27.91A144.45,144.45,0,0,0,95.6,351.61a202.42,202.42,0,0,0,33.92,13.12,309.3,309.3,0,0,0,35.41,7.9.37.37,0,0,0,.4-.22c2.06-5.32,3.86-10.73,5.56-16.17s3.19-10.95,4.52-16.49a.14.14,0,0,0,0-.09.2.2,0,0,0-.25-.16l-4.69,1Z"/><path class="cls-3" d="M302.06,215.94a143.18,143.18,0,0,1,2.56,36.1A103,103,0,0,1,296.28,287l-1.82,4.11-2.12,4-1.06,2-1.19,1.91-2.38,3.82-2.61,3.66-1.31,1.83c-.46.6-.94,1.17-1.41,1.76l-2.83,3.5-3,3.35L275,318.53l-1.6,1.59c-1.07,1.05-2.12,2.13-3.2,3.17-2.26,2-4.43,4.08-6.8,5.95a152.74,152.74,0,0,1-14.58,10.69c-20.25,13.2-43,22.34-66.46,28.57l2.4,2.62a267.71,267.71,0,0,0,10-36.47l-1.38,1.45.68-.24.43-.18.86-.37,1.7-.74c1.12-.5,2.25-1,3.36-1.54,2.23-1,4.44-2.16,6.62-3.31s4.32-2.36,6.44-3.61,4.2-2.65,6.25-4c4.08-2.73,8.09-5.62,11.92-8.74,1-.78,1.91-1.57,2.85-2.41s1.83-1.69,2.71-2.57c1.77-1.74,3.47-3.56,5.07-5.47a63.92,63.92,0,0,0,8.3-12.42,59,59,0,0,0,4.84-14.13,68.18,68.18,0,0,0,1.14-7.36,63.79,63.79,0,0,0,.24-7.42c.14-5-.55-9.82-1-14.71A228.45,228.45,0,0,0,251,217.93a145.82,145.82,0,0,0-3.93-14.17c-.4-1.16-.8-2.31-1.25-3.46a4.87,4.87,0,0,0-.43-1,2.14,2.14,0,0,0-1-.82,2.18,2.18,0,0,0-2.43.62,2.5,2.5,0,0,0-.35.56c-.08.2-.11.3-.17.46l-.32.86-.61,1.74c-.39,1.16-.77,2.33-1.13,3.5-1.44,4.69-2.58,9.45-3.6,14.23s-1.87,9.61-2.57,14.44c-.36,2.42-.67,4.85-1,7.27s-.47,4.86-.72,7.3-.5,4.86-.65,7.31l-.75,7.24V264l-.57,3.1-.29,1.55c-.09.54-.14,1.06-.23,1.54l-.7,3c-.21,1-.42,2.06-.59,3.12l0-.09c-.71,2.45-1.16,5.07-1.88,7.46s-1.37,4.92-2.15,7.33a56.61,56.61,0,0,1-6.28,13.68,44.51,44.51,0,0,1-9.92,11.07,45.36,45.36,0,0,1-13.19,6.79l1.95,1.65a208.25,208.25,0,0,0,2.91-28.87,171.93,171.93,0,0,0-1.54-29,139,139,0,0,0-7-28.26,121.5,121.5,0,0,0-13.11-26l0,1.8a155.32,155.32,0,0,1,20.18-22.41l5.7-5,6-4.67c1-.81,2-1.51,3.06-2.24l3.09-2.19c2-1.51,4.21-2.82,6.33-4.19l3.21-2,3.28-1.91,3.28-1.91c1.1-.63,2.23-1.2,3.35-1.8,2.23-1.2,4.45-2.43,6.74-3.52s4.54-2.27,6.86-3.29l3.47-1.58,3.5-1.48c2.33-1,4.7-1.93,7.07-2.85,1.18-.47,2.38-.9,3.57-1.33s2.38-.89,3.59-1.29l3.6-1.24,3.51-1.16C287.76,169.25,297.5,192.09,302.06,215.94Zm-28.9-67.58-3.67,1.09c-2.43.76-4.87,1.52-7.27,2.38s-4.81,1.69-7.18,2.63l-3.57,1.39-3.53,1.48c-2.37,1-4.69,2-7,3.1s-4.62,2.18-6.9,3.34c-1.14.58-2.29,1.14-3.41,1.75l-3.36,1.86-3.35,1.87-3.28,2c-2.18,1.35-4.39,2.63-6.49,4.11L211,177.51c-1.06.72-2.14,1.41-3.14,2.21l-6.15,4.63-5.89,5A147.57,147.57,0,0,0,174.91,212a1.55,1.55,0,0,0,0,1.78l0,0a118.78,118.78,0,0,1,12.54,25.42,141.28,141.28,0,0,1,6.68,27.61,180.29,180.29,0,0,1,1.64,28.45,228.73,228.73,0,0,1-2.41,28.48v0a1.49,1.49,0,0,0,2,1.61,48.1,48.1,0,0,0,13.87-7.51A46.62,46.62,0,0,0,219.43,306a59.2,59.2,0,0,0,6.22-14.32c.75-2.48,1.39-5,2-7.47s1.06-5,1.72-7.49v0l0-.07c.13-1,.32-2,.5-3.06.09-.52.22-1,.32-1.52s.24-1,.34-1.57.15-1.08.22-1.57l.26-1.54.53-3.08h0v-.05l.67-7.32c.12-2.42.36-4.84.56-7.27s.39-4.84.68-7.26.59-4.83.93-7.24c.68-4.81,1.49-9.61,2.55-14.36s2.2-9.47,3.65-14.1c.37-1.16.75-2.31,1.15-3.45l.61-1.71.32-.85.15-.4A.92.92,0,0,1,243,200a.78.78,0,0,1,.89-.22c.35.14.42.32.66,1,.43,1.13.82,2.28,1.21,3.43a134.48,134.48,0,0,1,3.78,14,226,226,0,0,1,4.26,28.82l.6,7.26c.06,1.21.18,2.45.17,3.63s0,2.37,0,3.59a65.37,65.37,0,0,1-.37,7.18,70.14,70.14,0,0,1-1.24,7.07A56.11,56.11,0,0,1,248,289.19a63.81,63.81,0,0,1-8.11,11.72c-1.56,1.81-3.21,3.54-4.93,5.2a69.1,69.1,0,0,1-5.4,4.7c-3.77,3-7.72,5.76-11.78,8.4-2,1.31-4.06,2.66-6.11,3.81s-4.22,2.36-6.36,3.48-4.3,2.18-6.48,3.19c-1.1.51-2.19,1-3.3,1.48l-1.66.71-1.42.58-.29.12a1.85,1.85,0,0,0-1.09,1.33A264.82,264.82,0,0,1,181,369.77a2,2,0,0,0,0,1.18,2,2,0,0,0,2.44,1.45h0a253.46,253.46,0,0,0,35.05-11.64c5.68-2.4,11.29-5,16.75-7.88a183,183,0,0,0,16-9.37,155.65,155.65,0,0,0,14.9-11.06c2.42-1.93,4.65-4.1,7-6.17,1.11-1.08,2.19-2.2,3.29-3.29l1.64-1.65,1.55-1.74,3.1-3.48,2.9-3.65c.48-.61,1-1.21,1.44-1.83l1.34-1.92,2.65-3.83,2.42-4,1.2-2,1.07-2.07,2.14-4.15,1.83-4.29a106.43,106.43,0,0,0,8.15-36.15,140.51,140.51,0,0,0-3.31-36.78,199.54,199.54,0,0,0-11.15-35.07c-.54-1.43-1.17-2.83-1.8-4.22L289.6,172c-.63-1.4-1.23-2.81-1.9-4.18l-2-4.12c-1.39-2.74-2.64-5.49-4.21-8.22L277,147.36Z"/><rect class="cls-2" x="165" y="-130" width="330" height="260"/><path class="cls-3" d="M340.25,79.91l-.25-.26a241.09,241.09,0,0,1-10.35,32.49l.4-.23A275.11,275.11,0,0,1,295,103.29a197,197,0,0,1-33.23-13.85,146.22,146.22,0,0,1-29.32-20.5,122,122,0,0,1-22.6-27.44A122.18,122.18,0,0,1,196.18,8.71a162.36,162.36,0,0,1-4.77-35.35,211.81,211.81,0,0,1,2.31-35.74,228.49,228.49,0,0,1,8-35l-2,1.36c21,1.92,41.85,5.44,61.76,12.16A162.47,162.47,0,0,1,290.07-71a116.2,116.2,0,0,1,24.91,19,99.84,99.84,0,0,1,18.27,25.42,115.49,115.49,0,0,1,10,29.81,150.78,150.78,0,0,1,2.47,31.47,189.38,189.38,0,0,1-3.26,31.48l.65-.53a58.2,58.2,0,0,1-6-.62c-.5-.07-1-.15-1.48-.24l-1.46-.35c-1-.24-2-.5-2.93-.79a83.84,83.84,0,0,1-11.34-4.29c-1.85-.82-3.6-1.79-5.37-2.79s-3.51-2-5.21-3.14-3.34-2.26-4.94-3.49a42.18,42.18,0,0,1-4.49-4A78.27,78.27,0,0,1,292,36.7a81.18,81.18,0,0,1-6.2-10.33c-.92-1.79-1.81-3.62-2.65-5.45s-1.55-3.69-2.22-5.58a118,118,0,0,1-3.31-11.63l0,.14L277-.3,277-.8l-.1-.55-.17-1c-.08-.55-.13-1.31-.21-2-.28-2.77-.66-5.51-1-8.27-.63-5.52-1.46-11-2.42-16.47S271-40,269.73-45.38c-.64-2.71-1.33-5.41-2.09-8.1-.38-1.34-.78-2.68-1.19-4l-.65-2-.33-1a3.41,3.41,0,0,0-1.32-1.73,3.36,3.36,0,0,0-1-.44,3.34,3.34,0,0,0-1.18-.06,3.31,3.31,0,0,0-2,1.06,3.53,3.53,0,0,0-.6,1,2.41,2.41,0,0,0-.12.34l-.08.25-.34,1c-.43,1.33-.84,2.67-1.24,4-.79,2.68-1.49,5.38-2.15,8.08q-2,8.12-3.47,16.32c-1,5.46-1.83,11-2.51,16.45l-1,8.26a73.27,73.27,0,0,0-.49,8.4l-.07,4.2c.07,1.45.17,2.84.3,4.24.26,2.79.66,5.57,1.18,8.32a72.22,72.22,0,0,0,4.95,16.05,79.77,79.77,0,0,0,8.39,14.49A75.81,75.81,0,0,0,274,62a90.49,90.49,0,0,0,13.49,9.77,83.46,83.46,0,0,0,15.15,6.83c10.53,3.6,22,4.07,32.87,2.31Zm-13,1.41c-2.71,0-5.53,0-8.25-.07-1.37-.06-2.73-.3-4.1-.48l-4.09-.58a64.56,64.56,0,0,1-7.95-2.2,82.1,82.1,0,0,1-14.92-7,87.41,87.41,0,0,1-13.09-10A74.06,74.06,0,0,1,264,48.75a77,77,0,0,1-7.84-14.34,69.89,69.89,0,0,1-4.4-15.68c-.44-2.69-.76-5.39-.94-8.11-.1-1.36-.16-2.73-.19-4l.17-4.09c.1-5.39,1.08-10.85,1.81-16.3s1.72-10.87,2.73-16.27,2.21-10.77,3.54-16.1q1-4,2.15-7.92c.38-1.31.79-2.61,1.21-3.91l.31-1,.13-.39a.35.35,0,0,1-.05.08.27.27,0,0,1-.2.1.39.39,0,0,1-.15,0l-.08,0c-.07,0-.1-.12-.1-.1l.32,1,.63,1.94q.61,1.95,1.17,3.93c.75,2.62,1.43,5.28,2.07,7.94,1.3,5.34,2.47,10.71,3.47,16.11.51,2.71,1,5.41,1.42,8.13s.85,5.45,1.23,8.17.8,5.44,1.13,8.17c.09.69.14,1.31.27,2.12.06.38.14.74.2,1.07l.09.47.09.52.69,4v.07l0,.07a116.87,116.87,0,0,0,3.62,11.84c.73,1.94,1.49,3.85,2.41,5.75s1.83,3.68,2.81,5.49A81.73,81.73,0,0,0,290.33,38a81,81,0,0,0,8.21,9.26,44.71,44.71,0,0,0,4.74,4c1.66,1.23,3.38,2.38,5.12,3.47s3.53,2.13,5.33,3.11,3.62,2,5.51,2.78a86.81,86.81,0,0,0,11.59,4.23c1,.28,2,.55,3,.79l1.52.35c.53.1,1,.17,1.54.25a60.37,60.37,0,0,0,6.15.6.63.63,0,0,0,.65-.53c.92-5.21,1.73-10.47,2.25-15.76.32-2.63.48-5.29.71-7.93s.35-5.3.36-8A153.11,153.11,0,0,0,344.68,2.9,119.5,119.5,0,0,0,335-27.51,103.47,103.47,0,0,0,316.78-53.8a116.9,116.9,0,0,0-25.16-19.85,165.81,165.81,0,0,0-29.09-13.42C242.34-94.19,221.17-97.8,200-99.92A2,2,0,0,0,198-98.57h0A232.36,232.36,0,0,0,189.58-63a207,207,0,0,0-2.44,36.48,159.62,159.62,0,0,0,5,36.29,124.74,124.74,0,0,0,14.31,33.78,121.12,121.12,0,0,0,23.72,27.91A144.45,144.45,0,0,0,260.6,91.61a202.42,202.42,0,0,0,33.92,13.12,309.3,309.3,0,0,0,35.41,7.9.37.37,0,0,0,.4-.22c2.06-5.32,3.86-10.73,5.56-16.17s3.19-10.95,4.52-16.49a.14.14,0,0,0,0-.09.2.2,0,0,0-.25-.16l-4.69,1Z"/><rect class="cls-2" x="-165" y="-130" width="330" height="260"/><path class="cls-3" d="M10.25,79.91,10,79.65A241.09,241.09,0,0,1-.35,112.14l.4-.23A275.11,275.11,0,0,1-35,103.29,197,197,0,0,1-68.27,89.44a146.22,146.22,0,0,1-29.32-20.5,122,122,0,0,1-22.6-27.44A122.18,122.18,0,0,1-133.82,8.71a162.36,162.36,0,0,1-4.77-35.35,211.81,211.81,0,0,1,2.31-35.74,228.49,228.49,0,0,1,8-35l-2,1.36c21,1.92,41.85,5.44,61.76,12.16A162.47,162.47,0,0,1-39.93-71,116.2,116.2,0,0,1-15-52.06,99.84,99.84,0,0,1,3.25-26.64a115.49,115.49,0,0,1,10,29.81,150.78,150.78,0,0,1,2.47,31.47,189.38,189.38,0,0,1-3.26,31.48l.65-.53a58.2,58.2,0,0,1-6-.62c-.5-.07-1-.15-1.48-.24l-1.46-.35c-1-.24-2-.5-2.93-.79A83.84,83.84,0,0,1-10.15,59.3c-1.85-.82-3.6-1.79-5.37-2.79s-3.51-2-5.21-3.14-3.34-2.26-4.94-3.49a42.18,42.18,0,0,1-4.49-4A78.27,78.27,0,0,1-38,36.7a81.18,81.18,0,0,1-6.2-10.33c-.92-1.79-1.81-3.62-2.65-5.45s-1.55-3.69-2.22-5.58A118,118,0,0,1-52.37,3.71l0,.14L-53-.3-53-.8l-.1-.55-.17-1c-.08-.55-.13-1.31-.21-2-.28-2.77-.66-5.51-1-8.27-.63-5.52-1.46-11-2.42-16.47S-59-40-60.27-45.38c-.64-2.71-1.33-5.41-2.09-8.1-.38-1.34-.78-2.68-1.19-4l-.65-2-.33-1a3.41,3.41,0,0,0-1.32-1.73,3.36,3.36,0,0,0-1-.44,3.34,3.34,0,0,0-1.18-.06,3.31,3.31,0,0,0-2,1.06,3.53,3.53,0,0,0-.6,1,2.41,2.41,0,0,0-.12.34l-.08.25-.34,1c-.43,1.33-.84,2.67-1.24,4-.79,2.68-1.49,5.38-2.15,8.08q-2,8.12-3.47,16.32c-1,5.46-1.83,11-2.51,16.45l-1,8.26a73.27,73.27,0,0,0-.49,8.4l-.07,4.2c.07,1.45.17,2.84.3,4.24.26,2.79.66,5.57,1.18,8.32a72.22,72.22,0,0,0,5,16.05A79.77,79.77,0,0,0-67.33,49.7,75.81,75.81,0,0,0-56,62a90.49,90.49,0,0,0,13.49,9.77,83.46,83.46,0,0,0,15.15,6.83c10.53,3.6,22,4.07,32.87,2.31Zm-13,1.41c-2.71,0-5.53,0-8.25-.07-1.37-.06-2.73-.3-4.1-.48l-4.09-.58A64.56,64.56,0,0,1-27.15,78a82.1,82.1,0,0,1-14.92-7A87.41,87.41,0,0,1-55.16,61,74.06,74.06,0,0,1-66,48.75a77,77,0,0,1-7.84-14.34,69.89,69.89,0,0,1-4.4-15.68c-.44-2.69-.76-5.39-.94-8.11-.1-1.36-.16-2.73-.19-4l.17-4.09c.1-5.39,1.08-10.85,1.81-16.3s1.72-10.87,2.73-16.27,2.21-10.77,3.54-16.1q1-4,2.15-7.92c.38-1.31.79-2.61,1.21-3.91l.31-1,.13-.39a.35.35,0,0,1,0,.08.27.27,0,0,1-.2.1.39.39,0,0,1-.15,0l-.08,0c-.07,0-.1-.12-.1-.1l.32,1,.63,1.94q.61,1.95,1.17,3.93c.75,2.62,1.43,5.28,2.07,7.94,1.3,5.34,2.47,10.71,3.47,16.11.51,2.71,1,5.41,1.42,8.13s.85,5.45,1.23,8.17.8,5.44,1.13,8.17c.09.69.14,1.31.27,2.12.06.38.14.74.2,1.07l.09.47.09.52.69,4v.07l0,.07a116.87,116.87,0,0,0,3.62,11.84c.73,1.94,1.49,3.85,2.41,5.75s1.83,3.68,2.81,5.49A81.73,81.73,0,0,0-39.67,38a81,81,0,0,0,8.21,9.26,44.71,44.71,0,0,0,4.74,4c1.66,1.23,3.38,2.38,5.12,3.47s3.53,2.13,5.33,3.11,3.62,2,5.51,2.78A86.81,86.81,0,0,0,.83,64.86c1,.28,2,.55,3,.79L5.33,66c.53.1,1,.17,1.54.25a60.37,60.37,0,0,0,6.15.6.63.63,0,0,0,.65-.53c.92-5.21,1.73-10.47,2.25-15.76.32-2.63.48-5.29.71-7.93s.35-5.3.36-8A153.11,153.11,0,0,0,14.68,2.9,119.5,119.5,0,0,0,5-27.51,103.47,103.47,0,0,0-13.22-53.8,116.9,116.9,0,0,0-38.38-73.65,165.81,165.81,0,0,0-67.47-87.07C-87.66-94.19-108.83-97.8-130-99.92A2,2,0,0,0-132-98.57h0A232.36,232.36,0,0,0-140.42-63a207,207,0,0,0-2.44,36.48,159.62,159.62,0,0,0,5,36.29,124.74,124.74,0,0,0,14.31,33.78A121.12,121.12,0,0,0-99.83,71.45,144.45,144.45,0,0,0-69.4,91.61a202.42,202.42,0,0,0,33.92,13.12,309.3,309.3,0,0,0,35.41,7.9.37.37,0,0,0,.4-.22c2.06-5.32,3.86-10.73,5.56-16.17s3.19-10.95,4.52-16.49a.14.14,0,0,0,0-.09.2.2,0,0,0-.25-.16l-4.69,1Z"/><path class="cls-3" d="M137.06-44.06A143.18,143.18,0,0,1,139.62-8,103,103,0,0,1,131.28,27l-1.82,4.11-2.12,4-1.06,2-1.19,1.91-2.38,3.82-2.61,3.66-1.31,1.83c-.46.6-.94,1.17-1.41,1.76l-2.83,3.5-3,3.35L110,58.53l-1.6,1.59c-1.07,1.05-2.12,2.13-3.2,3.17-2.26,2-4.43,4.08-6.8,5.95A152.74,152.74,0,0,1,83.83,79.93c-20.25,13.2-43,22.34-66.46,28.57l2.4,2.62a267.71,267.71,0,0,0,10-36.47L28.4,76.1l.68-.24.43-.18.86-.37,1.7-.74c1.12-.5,2.25-1,3.36-1.54,2.23-1,4.44-2.16,6.62-3.31s4.32-2.36,6.44-3.61,4.2-2.65,6.25-4c4.08-2.73,8.09-5.62,11.92-8.74,1-.78,1.91-1.57,2.85-2.41s1.83-1.69,2.71-2.57c1.77-1.74,3.47-3.56,5.07-5.47a63.92,63.92,0,0,0,8.3-12.42,59,59,0,0,0,4.84-14.13A68.18,68.18,0,0,0,91.57,9a63.79,63.79,0,0,0,.24-7.42c.14-5-.55-9.82-1-14.71A228.45,228.45,0,0,0,86-42.07a145.82,145.82,0,0,0-3.93-14.17c-.4-1.16-.8-2.31-1.25-3.46a4.87,4.87,0,0,0-.43-1,2.14,2.14,0,0,0-1-.82,2.18,2.18,0,0,0-2.43.62,2.5,2.5,0,0,0-.35.56c-.08.2-.11.3-.17.46l-.32.86-.61,1.74c-.39,1.16-.77,2.33-1.13,3.5-1.44,4.69-2.58,9.45-3.6,14.23S68.9-29.92,68.2-25.09c-.36,2.42-.67,4.85-1,7.27s-.47,4.86-.72,7.3-.5,4.86-.65,7.31L65.11,4V4l-.57,3.1-.29,1.55c-.09.54-.14,1.06-.23,1.54l-.7,3c-.21,1-.42,2.06-.59,3.12l0-.09c-.71,2.45-1.16,5.07-1.88,7.46S59.5,28.61,58.72,31A56.61,56.61,0,0,1,52.44,44.7a44.51,44.51,0,0,1-9.92,11.07,45.36,45.36,0,0,1-13.19,6.79l2,1.65a208.25,208.25,0,0,0,2.91-28.87,171.93,171.93,0,0,0-1.54-29,139,139,0,0,0-7-28.26A121.5,121.5,0,0,0,12.51-48l0,1.8A155.32,155.32,0,0,1,32.66-68.59l5.7-5,6-4.67c1-.81,2-1.51,3.06-2.24l3.09-2.19c2-1.51,4.21-2.82,6.33-4.19l3.21-2,3.28-1.91,3.28-1.91c1.1-.63,2.23-1.2,3.35-1.8,2.23-1.2,4.45-2.43,6.74-3.52s4.54-2.27,6.86-3.29L87-102.92l3.5-1.48c2.33-1,4.7-1.93,7.07-2.85,1.18-.47,2.38-.9,3.57-1.33s2.38-.89,3.59-1.29l3.6-1.24,3.51-1.16C122.76-90.75,132.5-67.91,137.06-44.06Zm-28.9-67.58-3.67,1.09c-2.43.76-4.87,1.52-7.27,2.38s-4.81,1.69-7.18,2.63l-3.57,1.39-3.53,1.48c-2.37,1-4.69,2-7,3.1s-4.62,2.18-6.9,3.34c-1.14.58-2.29,1.14-3.41,1.75l-3.36,1.86-3.35,1.87-3.28,2c-2.18,1.35-4.39,2.63-6.49,4.11L46-82.49c-1.06.72-2.14,1.41-3.14,2.21l-6.15,4.63-5.89,5A147.57,147.57,0,0,0,9.91-48a1.55,1.55,0,0,0-.05,1.78l0,0A118.78,118.78,0,0,1,22.42-20.8,141.28,141.28,0,0,1,29.1,6.81a180.29,180.29,0,0,1,1.64,28.45,228.73,228.73,0,0,1-2.41,28.48v0a1.49,1.49,0,0,0,2,1.61,48.1,48.1,0,0,0,13.87-7.51A46.62,46.62,0,0,0,54.43,46a59.2,59.2,0,0,0,6.22-14.32c.75-2.48,1.39-5,2-7.47s1.06-5,1.72-7.49v0l0-.07c.13-1,.32-2,.5-3.06.09-.52.22-1,.32-1.52s.24-1,.34-1.57.15-1.08.22-1.57l.26-1.54.53-3.08h0V4.18l.67-7.32c.12-2.42.36-4.84.56-7.27s.39-4.84.68-7.26.59-4.83.93-7.24c.68-4.81,1.49-9.61,2.55-14.36s2.2-9.47,3.65-14.1c.37-1.16.75-2.31,1.15-3.45l.61-1.71.32-.85.15-.4A.92.92,0,0,1,78-60a.78.78,0,0,1,.89-.22c.35.14.42.32.66,1,.43,1.13.82,2.28,1.21,3.43a134.48,134.48,0,0,1,3.78,14,226,226,0,0,1,4.26,28.82l.6,7.26c.06,1.21.18,2.45.17,3.63s0,2.37,0,3.59a65.37,65.37,0,0,1-.37,7.18,70.14,70.14,0,0,1-1.24,7.07A56.11,56.11,0,0,1,83,29.19a63.81,63.81,0,0,1-8.11,11.72c-1.56,1.81-3.21,3.54-4.93,5.2a69.1,69.1,0,0,1-5.4,4.7c-3.77,3-7.72,5.76-11.78,8.4-2,1.31-4.06,2.66-6.11,3.81s-4.22,2.36-6.36,3.48-4.3,2.18-6.48,3.19c-1.1.51-2.19,1-3.3,1.48l-1.66.71-1.42.58-.29.12a1.85,1.85,0,0,0-1.09,1.33A264.82,264.82,0,0,1,16,109.77a2,2,0,0,0-.05,1.18,2,2,0,0,0,2.44,1.45h0a253.46,253.46,0,0,0,35.05-11.64c5.68-2.4,11.29-5,16.75-7.88a183,183,0,0,0,16-9.37,155.65,155.65,0,0,0,14.9-11.06c2.42-1.93,4.65-4.1,7-6.17,1.11-1.08,2.19-2.2,3.29-3.29L113,61.33l1.55-1.74,3.1-3.48,2.9-3.65c.48-.61,1-1.21,1.44-1.83l1.34-1.92,2.65-3.83,2.42-4,1.2-2,1.07-2.07,2.14-4.15,1.83-4.29a106.43,106.43,0,0,0,8.15-36.15,140.51,140.51,0,0,0-3.31-36.78,199.54,199.54,0,0,0-11.15-35.07c-.54-1.43-1.17-2.83-1.8-4.22L124.6-88c-.63-1.4-1.23-2.81-1.9-4.18l-2-4.12c-1.39-2.74-2.64-5.49-4.21-8.22L112-112.64Z"/></pattern></defs><rect class="cls-4" width="2000" height="2000"/></svg>